<?xml version="1.0" encoding="UTF-8" standalone="no"?>
<svg
   version="1.1"
   id="Layer_1"
   x="0px"
   y="0px"
   width="122.88px"
   height="122.88px"
   viewBox="0 0 122.88 122.88"
   enable-background="new 0 0 122.88 122.88"
   xml:space="preserve"
   sodipodi:docname="checkmark.svg"
   inkscape:version="1.3.1 (9b9bdc1480, 2023-11-25, custom)"
   xmlns:inkscape="http://www.inkscape.org/namespaces/inkscape"
   xmlns:sodipodi="http://sodipodi.sourceforge.net/DTD/sodipodi-0.dtd"
   xmlns="http://www.w3.org/2000/svg"
   xmlns:svg="http://www.w3.org/2000/svg"><defs
     id="defs1" /><sodipodi:namedview
     id="namedview1"
     pagecolor="#ffffff"
     bordercolor="#000000"
     borderopacity="0.25"
     inkscape:showpageshadow="2"
     inkscape:pageopacity="0.0"
     inkscape:pagecheckerboard="0"
     inkscape:deskcolor="#d1d1d1"
     inkscape:zoom="15.429688"
     inkscape:cx="61.407594"
     inkscape:cy="30.331139"
     inkscape:window-width="3786"
     inkscape:window-height="2096"
     inkscape:window-x="54"
     inkscape:window-y="27"
     inkscape:window-maximized="1"
     inkscape:current-layer="Layer_1" /><g
     id="g1"><path
       d="m 34.465,67.43 c -1.461,-1.322 -1.574,-3.579 -0.252,-5.041 1.322,-1.461 3.58,-1.574 5.041,-0.252 l 13.081,11.862 31.088,-32.56 c 1.361,-1.431 3.625,-1.487 5.056,-0.126 1.431,1.361 1.487,3.624 0.126,5.055 L 55.11,81.447 55.105,81.443 c -1.33,1.398 -3.541,1.489 -4.98,0.187 z M 8.792,0 h 105.296 c 2.422,0 4.62,0.988 6.212,2.58 1.592,1.592 2.58,3.791 2.58,6.212 v 105.295 c 0,2.422 -0.988,4.62 -2.58,6.212 -1.592,1.592 -3.79,2.58 -6.212,2.58 H 8.792 c -2.421,0 -4.62,-0.988 -6.212,-2.58 C 0.988,118.707 0,116.51 0,114.088 V 8.792 C 0,6.371 0.988,4.172 2.58,2.58 4.172,0.988 6.371,0 8.792,0 Z M 114.088,7.17 H 8.792 C 8.35,7.17 7.945,7.354 7.649,7.649 7.354,7.945 7.17,8.35 7.17,8.792 v 105.295 c 0,0.442 0.184,0.848 0.479,1.144 0.296,0.296 0.701,0.479 1.143,0.479 h 105.296 c 0.442,0 0.848,-0.184 1.144,-0.479 0.295,-0.296 0.479,-0.701 0.479,-1.144 V 8.792 c 0,-0.443 -0.185,-0.848 -0.479,-1.143 C 114.936,7.354 114.53,7.17 114.088,7.17 Z"
       id="path1"
       inkscape:label="path1"
       style="display:inline;fill:#ffffff;fill-opacity:1" /></g></svg>
