<?xml version="1.0" encoding="UTF-8" standalone="no"?>
<svg
   version="1.1"
   id="Layer_1"
   x="0px"
   y="0px"
   width="122.879px"
   height="122.88px"
   viewBox="0 0 122.879 122.88"
   enable-background="new 0 0 122.879 122.88"
   xml:space="preserve"
   sodipodi:docname="x.svg"
   inkscape:version="1.3.1 (9b9bdc1480, 2023-11-25, custom)"
   xmlns:inkscape="http://www.inkscape.org/namespaces/inkscape"
   xmlns:sodipodi="http://sodipodi.sourceforge.net/DTD/sodipodi-0.dtd"
   xmlns="http://www.w3.org/2000/svg"
   xmlns:svg="http://www.w3.org/2000/svg"><defs
     id="defs1" /><sodipodi:namedview
     id="namedview1"
     pagecolor="#ffffff"
     bordercolor="#000000"
     borderopacity="0.25"
     inkscape:showpageshadow="2"
     inkscape:pageopacity="0.0"
     inkscape:pagecheckerboard="0"
     inkscape:deskcolor="#d1d1d1"
     inkscape:zoom="15.429688"
     inkscape:cx="61.407594"
     inkscape:cy="61.439999"
     inkscape:window-width="3786"
     inkscape:window-height="2096"
     inkscape:window-x="54"
     inkscape:window-y="27"
     inkscape:window-maximized="1"
     inkscape:current-layer="Layer_1" /><g
     id="g1"><path
       d="M8.773,0h105.332c2.417,0,4.611,0.986,6.199,2.574c1.589,1.588,2.574,3.783,2.574,6.199v105.333 c0,2.416-0.985,4.61-2.574,6.199c-1.588,1.588-3.782,2.574-6.199,2.574H8.773c-2.416,0-4.611-0.986-6.199-2.574 C0.986,118.717,0,116.522,0,114.106V8.773c0-2.417,0.986-4.611,2.574-6.199S6.357,0,8.773,0L8.773,0z M80.549,37.291 c1.391-1.392,3.647-1.392,5.039,0s1.392,3.648,0,5.04L66.479,61.439l19.109,19.109c1.392,1.392,1.392,3.647,0,5.04 c-1.392,1.392-3.648,1.392-5.039,0L61.439,66.479L42.33,85.589c-1.392,1.392-3.648,1.392-5.04,0c-1.392-1.393-1.392-3.648,0-5.04 l19.109-19.109L37.291,42.331c-1.392-1.392-1.392-3.648,0-5.04s3.648-1.392,5.04,0L61.439,56.4L80.549,37.291L80.549,37.291z M114.105,7.129H8.773c-0.449,0-0.859,0.186-1.159,0.485c-0.3,0.3-0.486,0.71-0.486,1.159v105.333c0,0.448,0.186,0.859,0.486,1.159 c0.3,0.299,0.71,0.485,1.159,0.485h105.332c0.449,0,0.86-0.187,1.159-0.485c0.3-0.3,0.486-0.711,0.486-1.159V8.773 c0-0.449-0.187-0.859-0.486-1.159C114.966,7.315,114.555,7.129,114.105,7.129L114.105,7.129z"
       id="path1"
       style="fill:#ffffff;fill-opacity:1" /></g></svg>
